<?xml version="1.0" encoding="UTF-8"?>
<!DOCTYPE svg PUBLIC "-//W3C//DTD SVG 1.1//EN" "http://www.w3.org/Graphics/SVG/1.1/DTD/svg11.dtd">
<!-- Creator: CorelDRAW X7 -->
<svg xmlns="http://www.w3.org/2000/svg" xml:space="preserve" width="841mm" height="594mm" version="1.1" style="shape-rendering:geometricPrecision; text-rendering:geometricPrecision; image-rendering:optimizeQuality; fill-rule:evenodd; clip-rule:evenodd"
viewBox="0 0 84100 59400"
 xmlns:xlink="http://www.w3.org/1999/xlink">
 <defs>
  <style type="text/css">
   <![CDATA[
    .fil0 {fill:#80AED9}
   ]]>
  </style>
 </defs>
 <g id="Layer_x0020_1">
  <metadata id="CorelCorpID_0Corel-Layer"/>
  <path class="fil0" d="M17692 31815l1179 1577c6605,-3292 7644,198 13406,1788 6697,1848 9656,-2992 14457,-3139 5108,-156 7413,4483 14426,3354 6582,-1059 6324,-5403 13844,-2053l1316 -1274c-1962,-1518 -4990,-2223 -7604,-1567 -2569,646 -4118,2124 -6627,2903 -6389,1981 -9133,-3173 -15045,-3128 -6006,45 -8364,5191 -14954,2984 -2512,-841 -3875,-2227 -6731,-2770 -3599,-685 -4957,402 -7667,1325z"/>
  <path class="fil0" d="M17778 22498l1228 1352c8107,-3201 7098,579 13713,1916 7084,1433 9250,-3200 14305,-3255 4966,-54 7375,4578 14383,3315 2709,-488 4105,-1481 6384,-2512 3504,-1585 4198,-601 7213,509l1421 -1457c-2739,-923 -4128,-2177 -7671,-1353 -2415,562 -4275,2122 -6665,2863 -6551,2032 -8945,-3154 -15066,-3070 -6055,82 -8571,5151 -14954,2953 -2709,-933 -8472,-5448 -14291,-1261z"/>
  <path class="fil0" d="M17778 27261l1225 1346c6910,-3352 7861,545 13749,1908 6535,1511 9322,-3187 14272,-3241 4966,-54 7375,4578 14383,3315 6526,-1176 6199,-5305 13597,-2010l1316 -1274c-1962,-1518 -4990,-2223 -7604,-1566 -2569,645 -4118,2123 -6627,2902 -6389,1981 -9133,-3173 -15045,-3128 -6006,45 -8364,5191 -14954,2984 -2512,-841 -3875,-2226 -6731,-2770 -2729,-520 -5542,66 -7581,1534z"/>
 </g>
</svg>
