<?xml version="1.0" encoding="UTF-8"?>
<!DOCTYPE svg PUBLIC "-//W3C//DTD SVG 1.1//EN" "http://www.w3.org/Graphics/SVG/1.1/DTD/svg11.dtd">
<!-- Creator: CorelDRAW X7 -->
<svg xmlns="http://www.w3.org/2000/svg" xml:space="preserve" width="841mm" height="594mm" version="1.1" style="shape-rendering:geometricPrecision; text-rendering:geometricPrecision; image-rendering:optimizeQuality; fill-rule:evenodd; clip-rule:evenodd"
viewBox="0 0 84100 59400"
 xmlns:xlink="http://www.w3.org/1999/xlink">
 <defs>
  <style type="text/css">
   <![CDATA[
    .fil0 {fill:#80AED9}
   ]]>
  </style>
   <clipPath id="id0">
    <rect x="16852" y="9429" width="33422" height="44324"/>
   </clipPath>
 </defs>
 <g id="Layer_x0020_1">
  <metadata id="CorelCorpID_0Corel-Layer"/>
  <g style="clip-path:url(#id0)">
   <image x="16852" y="9429" width="33422" height="44324" xlink:href="design-leftside_Images\design-leftside_ImgID1.png"/>
  </g>
  <g id="_2378144372768">
   <path class="fil0" d="M27051 48038l520 696c2916,-1453 3374,88 5918,789 2956,816 4262,-1320 6382,-1385 2254,-69 3272,1979 6368,1480 2905,-467 2791,-2385 6111,-906l581 -562c-867,-670 -2203,-982 -3357,-692 -1134,285 -1818,938 -2925,1281 -2821,875 -4032,-1400 -6642,-1380 -2651,19 -3692,2291 -6601,1317 -1108,-371 -1710,-983 -2971,-1223 -1588,-302 -2188,178 -3384,585z"/>
   <path class="fil0" d="M27089 43925l542 597c3578,-1413 3133,256 6053,846 3127,632 4083,-1413 6315,-1437 2192,-24 3255,2021 6349,1463 1195,-215 1812,-653 2818,-1109 1546,-699 1853,-265 3184,225l627 -643c-1209,-407 -1822,-961 -3386,-597 -1066,248 -1887,936 -2942,1264 -2892,896 -3949,-1393 -6651,-1356 -2673,37 -3783,2274 -6601,1304 -1196,-412 -3740,-2405 -6308,-557z"/>
   <path class="fil0" d="M27089 46028l541 594c3050,-1480 3470,240 6069,842 2884,667 4115,-1407 6300,-1431 2192,-23 3255,2021 6349,1464 2880,-519 2736,-2342 6002,-887l581 -563c-867,-670 -2203,-981 -3357,-691 -1134,285 -1818,937 -2925,1281 -2821,874 -4032,-1401 -6642,-1381 -2651,20 -3692,2292 -6601,1317 -1108,-371 -1710,-982 -2971,-1222 -1204,-230 -2446,29 -3346,677z"/>
  </g>
 </g>
</svg>
