<?xml version="1.0" encoding="UTF-8"?>
<!DOCTYPE svg PUBLIC "-//W3C//DTD SVG 1.1//EN" "http://www.w3.org/Graphics/SVG/1.1/DTD/svg11.dtd">
<!-- Creator: CorelDRAW X7 -->
<svg xmlns="http://www.w3.org/2000/svg" xml:space="preserve" width="841mm" height="594mm" version="1.1" style="shape-rendering:geometricPrecision; text-rendering:geometricPrecision; image-rendering:optimizeQuality; fill-rule:evenodd; clip-rule:evenodd"
viewBox="0 0 84100 59400"
 xmlns:xlink="http://www.w3.org/1999/xlink">
 <defs>
  <style type="text/css">
   <![CDATA[
    .fil0 {fill:#478AC9}
   ]]>
  </style>
 </defs>
 <g id="Layer_x0020_1">
  <metadata id="CorelCorpID_0Corel-Layer"/>
  <g id="_2378132886528">
   <path class="fil0" d="M61810 20566c-2541,893 -1318,4479 1470,3718 2547,-694 1396,-4724 -1470,-3718z"/>
   <path class="fil0" d="M40661 33965c-2555,754 -1546,4618 1422,3720 2395,-724 1466,-4572 -1422,-3720z"/>
   <path class="fil0" d="M40484 20682c-947,409 -1746,1084 -1099,2561 405,927 1667,1475 2912,942 2233,-954 1004,-4721 -1813,-3503z"/>
   <path class="fil0" d="M19295 20662c-538,239 -635,-120 -1137,908 -808,1658 949,3517 2924,2587 2223,-1046 828,-4658 -1787,-3495z"/>
   <path class="fil0" d="M47319 27537c-27,17 -1793,638 -773,2552 449,841 1783,1362 2986,728 2161,-1141 428,-4937 -2213,-3280z"/>
   <path class="fil0" d="M19452 33965c-2851,800 -1208,4624 1445,3730 2296,-774 1329,-4508 -1445,-3730z"/>
   <path class="fil0" d="M61868 33984c-2550,899 -1360,4612 1392,3697 2571,-855 1266,-4634 -1392,-3697z"/>
   <path class="fil0" d="M53708 30477c1177,582 1829,708 3291,236 732,-1291 737,-1337 273,-2961 -2496,-1280 -4491,-445 -3564,2725z"/>
   <path class="fil0" d="M61498 27440c-2072,1275 -524,4603 2078,3409 2455,-1127 375,-4919 -2078,-3409z"/>
   <path class="fil0" d="M25371 30477c1401,720 2165,692 3564,0 281,-1049 280,-1675 0,-2725 -2532,-1250 -4483,-471 -3564,2725z"/>
   <path class="fil0" d="M18983 27576c-429,294 -643,11 -945,1036 -572,1942 1870,3123 3339,2058 1939,-1407 -41,-4706 -2394,-3094z"/>
   <path class="fil0" d="M32305 28083l-85 2064 974 762c1938,317 3772,-414 2978,-2536 -582,-1553 -2157,-1595 -3867,-290z"/>
   <path class="fil0" d="M40251 27402c-2188,1191 -486,4702 2109,3418 2188,-1084 483,-4829 -2109,-3418z"/>
   <path class="fil0" d="M47592 20624c-2841,1398 -638,4421 1592,3600 2402,-884 980,-4866 -1592,-3600z"/>
   <path class="fil0" d="M33570 34023c-2915,1182 -959,4694 1583,3591 2265,-984 817,-4565 -1583,-3591z"/>
   <path class="fil0" d="M33493 20585c-2817,1119 -832,4635 1660,3613 2359,-967 722,-4560 -1660,-3613z"/>
   <path class="fil0" d="M47788 33945c-2565,666 -1475,4432 1200,3799 2597,-616 1430,-4481 -1200,-3799z"/>
   <path class="fil0" d="M26442 34041c-2921,1338 -757,4555 1576,3607 2265,-921 880,-4731 -1576,-3607z"/>
   <path class="fil0" d="M57487 23293c362,-3867 -3389,-3305 -3954,-1531 -394,1237 356,2257 1353,2522 1274,337 1882,-398 2601,-991z"/>
   <path class="fil0" d="M26385 20624c-2848,1283 -660,4478 1597,3585 2367,-936 888,-4705 -1597,-3585z"/>
   <path class="fil0" d="M57485 34938c-2202,-1826 -4702,-884 -3952,1528 587,1890 4346,2223 3952,-1528z"/>
  </g>
 </g>
</svg>
