<?xml version="1.0" encoding="UTF-8"?>
<!DOCTYPE svg PUBLIC "-//W3C//DTD SVG 1.1//EN" "http://www.w3.org/Graphics/SVG/1.1/DTD/svg11.dtd">
<!-- Creator: CorelDRAW X7 -->
<svg xmlns="http://www.w3.org/2000/svg" xml:space="preserve" width="841mm" height="434.378mm" version="1.1" style="shape-rendering:geometricPrecision; text-rendering:geometricPrecision; image-rendering:optimizeQuality; fill-rule:evenodd; clip-rule:evenodd"
viewBox="0 0 84100 43438"
 xmlns:xlink="http://www.w3.org/1999/xlink">
 <defs>
  <style type="text/css">
   <![CDATA[
    .fil0 {fill:#D9DADA}
    .fil2 {fill:#02A2FF}
    .fil1 {fill:#60C0F7}
   ]]>
  </style>
 </defs>
 <g id="Layer_x0020_1">
  <metadata id="CorelCorpID_0Corel-Layer"/>
  <path class="fil0" d="M51336 42619l9293 -2 4619 -8036c6,-97 -1247,-2182 -1437,-2542 -75,-142 -202,-372 -290,-503 -358,-531 -1370,-2376 -1743,-3012 -214,-366 -386,-686 -581,-1003l-423 -742c-62,-109 -83,-128 -149,-251l-9318 -5c-415,750 -727,1310 -1140,2016 -325,554 -3454,5933 -3451,6040 2,84 2037,3589 2301,4026 734,1214 1575,2809 2319,4014z"/>
  <path class="fil0" d="M16743 34958l4050 7008c180,314 432,711 578,1002l9301 11c411,-677 780,-1322 1152,-2002 619,-1126 3460,-5869 3471,-6027 13,-207 -3422,-5874 -4031,-7035 -172,-329 -432,-701 -588,-1024l-9020 -2c-439,0 -272,26 -765,856l-2973 5137c-196,351 -1108,1858 -1175,2076z"/>
  <path class="fil0" d="M36029 17052l9295 4 1137 -1992c780,-1259 1535,-2741 2319,-4019 120,-196 1155,-1959 1151,-2036l-4040 -7031c-199,-332 -415,-688 -574,-1005 -1375,-65 -2915,-3 -4308,-3 -693,0 -4467,-39 -4870,-2 -193,17 -175,86 -276,257 -120,200 -281,475 -394,699l-804 1381c-271,481 -539,941 -790,1364 -776,1302 -1596,2857 -2371,4116 -162,262 -153,208 129,696l4396 7571z"/>
  <path class="fil1" d="M75316 33654c159,-120 4,-62 170,-280 280,-368 2705,-4638 3304,-5678l1164 -2016c12,-96 -1011,-1799 -1145,-2037 -378,-666 -1361,-2440 -1737,-3018 -183,-279 -418,-679 -583,-1001 -146,-287 -1033,-1832 -1184,-2013 -3062,-26 -6178,6 -9248,-3l-3960 6825c-145,247 -254,443 -403,692 -312,516 -333,493 -186,727 548,877 1067,1903 1593,2746l2757 4789c68,124 113,260 240,293 134,35 9031,56 9218,-26z"/>
  <path class="fil2" d="M21279 25787l9280 -5c196,-310 362,-664 557,-979 508,-821 1196,-2103 1740,-3012 227,-378 2297,-3942 2302,-4036 5,-112 -990,-1792 -1131,-2029 -421,-709 -768,-1349 -1162,-2010l-2306 -4006 -9280 -10c-187,230 -456,735 -585,984 -378,726 -1281,2204 -1744,3014 -200,348 -2290,3912 -2303,4032 -14,125 1052,1898 1130,2022l1161 2008c135,247 2214,3892 2341,4027z"/>
  <path class="fil1" d="M36282 34278l9216 3c155,-71 250,-327 329,-463l4344 -7545c18,-126 -442,-862 -541,-1029 -954,-1609 -1951,-3431 -2896,-5023l-1090 -1848c-5,-7 -10,-17 -14,-24 -4,-7 -9,-17 -13,-25l-51 -105c-316,-66 -8093,-19 -8632,-19 -836,0 -542,-83 -808,257 -139,176 -256,448 -403,692 -811,1342 -1570,2754 -2377,4111l-1573 2726c-199,332 -37,456 142,752 132,220 265,456 402,693l3561 6169c67,115 131,225 191,339l213 339z"/>
  <path class="fil2" d="M15749 34623c136,-172 184,-249 314,-467 1069,-1799 2138,-3712 3186,-5529 111,-194 1140,-1908 1154,-2012 21,-154 -1755,-3083 -1993,-3535 -109,-208 -183,-312 -292,-503 -199,-351 -390,-683 -578,-1004l-1158 -2011c-179,-314 -436,-713 -597,-1020l-9273 0 -787 1364c-118,222 -259,425 -388,659l-1190 2055c-658,1139 -1503,2672 -2168,3754 -112,183 -130,203 -16,397 268,453 535,884 788,1361 280,528 515,854 802,1391 134,250 269,435 390,663 711,1339 1666,2805 2373,4117 207,385 128,325 778,324l6451 0c712,0 1502,33 2204,-4z"/>
  <path class="fil2" d="M51040 25375l9287 6c414,-665 759,-1349 1160,-2007l726 -1236c57,-106 84,-167 145,-270l2589 -4527c2,-80 -2070,-3652 -2293,-4022l-2028 -3517c-87,-153 -239,-368 -293,-497l-9300 -6c-140,347 -70,201 -199,364l-2972 5140c-250,429 -1423,2403 -1420,2540 2,125 2498,4409 2858,5024l1740 3008z"/>
  <path class="fil0" d="M65756 16490l5312 12c247,-464 2597,-4437 2607,-4555 11,-132 -518,-960 -623,-1143 -243,-425 -450,-770 -659,-1153l-1318 -2283c-576,-65 -4000,-14 -4904,-19 -500,-3 -324,-84 -687,521l-1368 2370c-273,495 -637,1072 -900,1551 -110,201 62,394 298,781l1352 2346c275,482 662,1069 890,1572z"/>
  <path class="fil0" d="M10301 17486l5206 0 2634 -4559c8,-107 -538,-997 -635,-1162l-1328 -2296c-125,-202 -210,-364 -336,-570 -98,-160 -212,-428 -335,-550l-5265 -6c-99,144 -251,424 -323,549l-829 1434c-130,223 -1465,2496 -1460,2599 5,104 1142,1999 1311,2307 212,385 436,767 663,1147 118,199 222,374 332,575 94,171 194,456 365,532z"/>
  <path class="fil0" d="M74357 10714l2980 -1c129,-150 982,-1669 1146,-1957 509,-901 575,-368 -381,-2019 -131,-226 -241,-422 -374,-648 -128,-218 -241,-476 -391,-650l-2980 2c-100,18 -688,1105 -786,1274 -917,1583 -884,1216 -410,2014 138,232 1044,1898 1196,1985z"/>
  <path class="fil0" d="M12866 41005l3039 13c128,-151 1516,-2582 1519,-2631 8,-154 -1314,-2249 -1484,-2646l-3076 1c-148,293 -1494,2532 -1488,2646 3,48 1339,2327 1490,2617z"/>
 </g>
</svg>
