<?xml version="1.0" encoding="UTF-8"?>
<!DOCTYPE svg PUBLIC "-//W3C//DTD SVG 1.1//EN" "http://www.w3.org/Graphics/SVG/1.1/DTD/svg11.dtd">
<!-- Creator: CorelDRAW X7 -->
<svg xmlns="http://www.w3.org/2000/svg" xml:space="preserve" width="841mm" height="594mm" version="1.1" style="shape-rendering:geometricPrecision; text-rendering:geometricPrecision; image-rendering:optimizeQuality; fill-rule:evenodd; clip-rule:evenodd"
viewBox="0 0 84100 59400"
 xmlns:xlink="http://www.w3.org/1999/xlink">
 <defs>
  <style type="text/css">
   <![CDATA[
    .fil0 {fill:#CCD3DA}
   ]]>
  </style>
 </defs>
 <g id="Layer_x0020_1">
  <metadata id="CorelCorpID_0Corel-Layer"/>
  <path class="fil0" d="M34062 2919c-1117,173 -1797,323 -2780,726 -2218,908 -4363,2852 -5244,5255 -1391,3793 -412,8408 -1636,12313 -573,1829 -2116,4123 -3326,5366l-2037 2271c-913,981 -2969,3482 -3501,4415 -3151,5533 -2933,10814 579,16065 1950,2915 4817,4908 8326,5628 6065,1245 12190,-1432 19410,408 2040,519 3578,1050 5862,1194 2090,131 4164,-271 5918,-985 2836,-1156 4598,-2822 6463,-4817 1086,-1163 3194,-4411 3885,-5752 3910,-7584 7424,-18835 2066,-27392 -247,-395 -441,-661 -706,-1016 -108,-146 -240,-339 -365,-498l-1205 -1381c-314,-325 -635,-541 -940,-861 -826,-865 -3156,-2249 -4202,-2772 -6610,-3299 -10643,-2211 -16058,-4857 -2971,-1452 -6356,-3952 -10509,-3310z"/>
 </g>
</svg>
