<?xml version="1.0" encoding="UTF-8"?>
<!DOCTYPE svg PUBLIC "-//W3C//DTD SVG 1.1//EN" "http://www.w3.org/Graphics/SVG/1.1/DTD/svg11.dtd">
<!-- Creator: CorelDRAW X7 -->
<svg xmlns="http://www.w3.org/2000/svg" xml:space="preserve" width="841mm" height="594mm" version="1.1" style="shape-rendering:geometricPrecision; text-rendering:geometricPrecision; image-rendering:optimizeQuality; fill-rule:evenodd; clip-rule:evenodd"
viewBox="0 0 84100 59400"
 xmlns:xlink="http://www.w3.org/1999/xlink">
 <defs>
  <style type="text/css">
   <![CDATA[
    .fil2 {fill:#898989}
    .fil0 {fill:#CCD3DA}
    .fil1 {fill:#02A2FF;fill-opacity:0.560784}
   ]]>
  </style>
 </defs>
 <g id="Layer_x0020_1">
  <metadata id="CorelCorpID_0Corel-Layer"/>
  <path class="fil0" d="M34062 2919c-1117,173 -1797,323 -2780,726 -2218,908 -4363,2852 -5244,5255 -1391,3793 -412,8408 -1636,12313 -573,1829 -2116,4123 -3326,5366l-2037 2271c-913,981 -2969,3482 -3501,4415 -3151,5533 -2933,10814 579,16065 1950,2915 4817,4908 8326,5628 6065,1245 12190,-1432 19410,408 2040,519 3578,1050 5862,1194 2090,131 4164,-271 5918,-985 2836,-1156 4598,-2822 6463,-4817 1086,-1163 3194,-4411 3885,-5752 3910,-7584 7424,-18835 2066,-27392 -247,-395 -441,-661 -706,-1016 -108,-146 -240,-339 -365,-498l-1205 -1381c-314,-325 -635,-541 -940,-861 -826,-865 -3156,-2249 -4202,-2772 -6610,-3299 -10643,-2211 -16058,-4857 -2971,-1452 -6356,-3952 -10509,-3310z"/>
  <path class="fil1" d="M50078 58547l1963 7c209,-95 1915,-309 3022,-678 942,-314 1781,-708 2494,-1209 1410,-989 2605,-2258 3567,-3835 2509,-4108 2312,-6992 3690,-11119 1303,-3903 2926,-6916 4901,-9901 2012,-3044 3451,-6994 3105,-11537 -336,-4404 -2250,-8324 -5265,-11394 -733,-747 -2201,-1897 -3113,-2438 -1647,-977 -3126,-1649 -5210,-2196 -3568,-936 -6058,-364 -12421,-2378 -2179,-690 -3752,-1221 -6320,-951 -3883,409 -7189,2339 -9305,5405 -1607,2329 -1389,2922 -2377,5022 -1236,2625 -3024,4440 -5247,5860 -2140,1367 -3203,1304 -5863,3390 -224,176 -289,277 -480,443 -6304,5477 -8087,15193 -3149,21812 562,753 457,510 864,983 325,377 621,555 948,907 600,646 1309,1098 2075,1626 1240,855 3451,1865 5076,2328 6472,1840 8793,308 17114,5093 1733,997 2886,2066 4455,2948 3295,1851 4627,1487 5476,1812z"/>
  <g id="_2378132886528">
   <path class="fil2" d="M71596 44378c-1045,367 -542,1843 605,1530 1048,-286 575,-1944 -605,-1530z"/>
   <path class="fil2" d="M62893 49892c-1052,310 -636,1900 585,1531 986,-298 603,-1882 -585,-1531z"/>
   <path class="fil2" d="M62820 44426c-390,168 -719,446 -452,1053 166,382 686,607 1198,388 919,-392 413,-1943 -746,-1441z"/>
   <path class="fil2" d="M54100 44417c-221,99 -261,-49 -468,374 -332,682 391,1447 1203,1065 915,-431 341,-1917 -735,-1439z"/>
   <path class="fil2" d="M65633 47247c-11,7 -738,262 -318,1050 184,346 733,560 1228,299 890,-469 177,-2031 -910,-1349z"/>
   <path class="fil2" d="M54165 49892c-1174,329 -497,1903 594,1535 945,-319 547,-1855 -594,-1535z"/>
   <path class="fil2" d="M71620 49900c-1049,370 -560,1898 573,1521 1058,-352 521,-1907 -573,-1521z"/>
   <path class="fil2" d="M68262 48456c484,240 753,292 1354,98 302,-532 304,-551 113,-1219 -1027,-527 -1848,-183 -1467,1121z"/>
   <path class="fil2" d="M71468 47207c-853,524 -216,1894 855,1403 1010,-464 154,-2025 -855,-1403z"/>
   <path class="fil2" d="M56601 48456c576,297 890,285 1466,0 116,-431 115,-689 0,-1121 -1042,-514 -1845,-194 -1466,1121z"/>
   <path class="fil2" d="M53972 47263c-177,121 -265,4 -389,426 -236,799 769,1285 1374,847 798,-579 -17,-1937 -985,-1273z"/>
   <path class="fil2" d="M59454 47471l-35 850 401 313c797,131 1552,-170 1225,-1043 -239,-639 -887,-657 -1591,-120z"/>
   <path class="fil2" d="M62724 47191c-900,490 -200,1935 868,1407 900,-446 199,-1988 -868,-1407z"/>
   <path class="fil2" d="M65745 44402c-1169,575 -262,1819 655,1481 989,-364 404,-2002 -655,-1481z"/>
   <path class="fil2" d="M59975 49916c-1200,486 -395,1931 651,1478 932,-405 336,-1879 -651,-1478z"/>
   <path class="fil2" d="M59943 44386c-1159,460 -342,1907 683,1486 971,-397 297,-1876 -683,-1486z"/>
   <path class="fil2" d="M65826 49884c-1056,274 -607,1824 494,1563 1068,-253 588,-1844 -494,-1563z"/>
   <path class="fil2" d="M57041 49923c-1202,551 -311,1875 649,1485 932,-379 362,-1947 -649,-1485z"/>
   <path class="fil2" d="M69817 45500c149,-1591 -1394,-1360 -1627,-630 -162,509 147,929 557,1038 524,139 774,-164 1070,-408z"/>
   <path class="fil2" d="M57018 44402c-1172,528 -272,1843 657,1475 974,-385 365,-1936 -657,-1475z"/>
   <path class="fil2" d="M69816 50292c-906,-751 -1935,-363 -1626,629 242,778 1789,915 1626,-629z"/>
  </g>
 </g>
</svg>
