<?xml version="1.0" encoding="UTF-8"?>
<!DOCTYPE svg PUBLIC "-//W3C//DTD SVG 1.1//EN" "http://www.w3.org/Graphics/SVG/1.1/DTD/svg11.dtd">
<!-- Creator: CorelDRAW X7 -->
<svg xmlns="http://www.w3.org/2000/svg" xml:space="preserve" width="841mm" height="594mm" version="1.1" style="shape-rendering:geometricPrecision; text-rendering:geometricPrecision; image-rendering:optimizeQuality; fill-rule:evenodd; clip-rule:evenodd"
viewBox="0 0 84100 59400"
 xmlns:xlink="http://www.w3.org/1999/xlink">
 <defs>
  <style type="text/css">
   <![CDATA[
    .fil0 {fill:#02A2FF}
   ]]>
  </style>
 </defs>
 <g id="Layer_x0020_1">
  <metadata id="CorelCorpID_0Corel-Layer"/>
  <path class="fil0" d="M50078 58547l1963 7c209,-95 1915,-309 3022,-678 942,-314 1781,-708 2494,-1209 1410,-989 2605,-2258 3567,-3835 2509,-4108 2312,-6992 3690,-11119 1303,-3903 2926,-6916 4901,-9901 2012,-3044 3451,-6994 3105,-11537 -336,-4404 -2250,-8324 -5265,-11394 -733,-747 -2201,-1897 -3113,-2438 -1647,-977 -3126,-1649 -5210,-2196 -3568,-936 -6058,-364 -12421,-2378 -2179,-690 -3752,-1221 -6320,-951 -3883,409 -7189,2339 -9305,5405 -1607,2329 -1389,2922 -2377,5022 -1236,2625 -3024,4440 -5247,5860 -2140,1367 -3203,1304 -5863,3390 -224,176 -289,277 -480,443 -6304,5477 -8087,15193 -3149,21812 562,753 457,510 864,983 325,377 621,555 948,907 600,646 1309,1098 2075,1626 1240,855 3451,1865 5076,2328 6472,1840 8793,308 17114,5093 1733,997 2886,2066 4455,2948 3295,1851 4627,1487 5476,1812z"/>
 </g>
</svg>
