<?xml version="1.0" encoding="UTF-8"?>
<!DOCTYPE svg PUBLIC "-//W3C//DTD SVG 1.1//EN" "http://www.w3.org/Graphics/SVG/1.1/DTD/svg11.dtd">
<!-- Creator: CorelDRAW X7 -->
<svg xmlns="http://www.w3.org/2000/svg" xml:space="preserve" width="841mm" height="50mm" version="1.1" style="shape-rendering:geometricPrecision; text-rendering:geometricPrecision; image-rendering:optimizeQuality; fill-rule:evenodd; clip-rule:evenodd"
viewBox="0 0 84100 5000"
 xmlns:xlink="http://www.w3.org/1999/xlink">
 <defs>
  <style type="text/css">
   <![CDATA[
    .str0 {stroke:#2B2A29;stroke-width:135.46}
    .fil0 {fill:none}
   ]]>
  </style>
 </defs>
 <g id="Layer_x0020_1">
  <metadata id="CorelCorpID_0Corel-Layer"/>
  <path class="fil0 str0" d="M21603 4207l667 0 -667 -1609 0 1609zm2902 -383l465 0c143,0 237,-26 282,-77 44,-51 67,-176 67,-375l0 -383c0,-199 -23,-325 -68,-377 -45,-52 -139,-78 -281,-78l-465 0 0 1290zm4008 -362l510 0 -231 -964 -41 0 -238 964zm713 746l-93 -272 -734 0 -71 271m5823 -1218l0 383c0,199 23,324 68,375 44,51 138,77 281,77l116 0c143,0 237,-26 283,-78 46,-52 69,-177 69,-374l0 -383c0,-198 -23,-324 -69,-376 -46,-53 -140,-79 -283,-79l-116 0c-142,0 -235,26 -280,78 -46,52 -69,178 -69,377zm2630 150l349 0c104,0 175,-18 212,-55 38,-36 57,-104 57,-202l0 -89c0,-99 -19,-167 -57,-204 -38,-37 -109,-55 -212,-55l-349 0 0 605zm615 1068l0 -283c0,-99 -20,-168 -57,-205 -38,-36 -109,-55 -212,-55l-346 0 0 543m6199 0l430 0 0 -1575 -430 1575zm-1132 0l433 0 -433 -1593 0 1593zm-41848 0l11717 0c-26,-17 -52,-34 -76,-52 -204,-154 -306,-371 -306,-651l0 -188 869 0 0 61c0,114 27,192 81,233 54,40 167,60 336,60l129 0c175,0 289,-22 341,-68 52,-45 79,-142 79,-291l0 -348c0,-152 -24,-249 -72,-293 -48,-44 -164,-66 -348,-66l-129 0c-153,0 -255,14 -309,40 -53,26 -82,74 -89,141l-830 0 0 -1934 2502 0 0 692 -1667 0 0 614c64,-82 145,-143 243,-184 97,-41 212,-61 342,-61l202 0c367,0 632,79 797,235 164,156 246,408 246,756l0 499c0,364 -90,618 -271,765 -17,14 -36,27 -56,40l1626 0c-80,-53 -151,-118 -214,-195 -203,-250 -304,-618 -304,-1104l0 -531c0,-544 107,-942 321,-1193 214,-251 551,-376 1014,-376l508 0c376,0 683,93 923,280 241,187 361,422 361,705l0 148 -936 0c-3,-109 -43,-189 -121,-238 -78,-49 -203,-74 -376,-74l-235 0c-214,0 -355,39 -424,117 -69,78 -103,267 -103,566l0 575c0,295 34,482 103,561 69,77 210,117 424,117l260 0c184,0 313,-26 386,-78 73,-51 109,-140 109,-267l0 -136 -535 0 0 -653 1448 0 0 597c0,472 -104,817 -311,1033 -53,56 -114,104 -184,146l2264 0 0 -2192 631 0 0 2192 641 0 0 -2192 929 0 723 1729 0 -1729 596 0 0 2192 626 0 0 -2192 1184 0c330,0 560,69 692,206 133,138 199,378 199,722l0 471c0,344 -66,585 -199,722 -24,26 -53,50 -85,71l855 0 0 -2192 631 0 0 2192 504 0 631 -2192 960 0 639 2193 1582 -1 0 -2192 1566 0 0 519 -942 0 0 451 887 0 0 512 -887 0 0 710 1664 0c-18,-15 -34,-30 -49,-46 -133,-140 -199,-387 -199,-740l0 -484c0,-353 66,-600 199,-741 132,-140 363,-210 692,-210l306 0c331,0 562,70 695,211 133,141 199,388 199,740l0 484c0,352 -66,598 -199,739 -15,17 -32,32 -50,47l800 0 0 -2192 939 0c359,0 604,47 738,141 133,95 200,260 200,497l0 187c0,157 -38,281 -114,370 -76,89 -189,143 -338,161 158,27 273,79 344,157 72,78 108,190 108,334l0 345 784 0c-26,-22 -50,-46 -72,-72 -63,-72 -107,-159 -134,-259 -26,-99 -40,-251 -40,-455l0 -1406 622 0 0 1357c0,189 23,311 71,368 47,56 144,84 291,84l114 0c146,0 242,-28 289,-83 47,-55 70,-178 70,-369l0 -1357 622 0 0 1406c0,208 -13,361 -39,460 -26,97 -69,183 -130,254 -23,26 -47,50 -73,72l831 0 0 -2192 912 0 477 1684 479 -1684 912 0 0 2192 40081 0"/>
 </g>
</svg>
