<?xml version="1.0" encoding="UTF-8"?>
<!DOCTYPE svg PUBLIC "-//W3C//DTD SVG 1.1//EN" "http://www.w3.org/Graphics/SVG/1.1/DTD/svg11.dtd">
<!-- Creator: CorelDRAW X7 -->
<svg xmlns="http://www.w3.org/2000/svg" xml:space="preserve" width="841mm" height="594mm" version="1.1" style="shape-rendering:geometricPrecision; text-rendering:geometricPrecision; image-rendering:optimizeQuality; fill-rule:evenodd; clip-rule:evenodd"
viewBox="0 0 84100 59400"
 xmlns:xlink="http://www.w3.org/1999/xlink">
 <defs>
  <style type="text/css">
   <![CDATA[
    .str0 {stroke:#2B2A29;stroke-width:135.46}
    .fil0 {fill:none}
   ]]>
  </style>
 </defs>
 <g id="Layer_x0020_1">
  <metadata id="CorelCorpID_0Corel-Layer"/>
  <path class="fil0 str0" d="M41081 32258l456 0 -456 -1101 0 1101zm1985 -262l318 0c98,0 162,-18 193,-53 30,-34 46,-120 46,-256l0 -262c0,-137 -16,-223 -47,-258 -31,-36 -95,-54 -192,-54l-318 0 0 883zm2741 -248l349 0 -158 -659 -28 0 -163 659zm488 510l-64 -186 -502 0 -48 186m3983 -833l0 262c0,136 15,222 46,256 31,35 95,53 193,53l79 0c98,0 162,-18 194,-54 31,-35 47,-121 47,-255l0 -262c0,-136 -16,-222 -47,-258 -32,-36 -96,-54 -194,-54l-79 0c-97,0 -161,18 -192,54 -31,35 -47,121 -47,258zm1799 102l238 0c72,0 120,-12 146,-37 26,-25 38,-71 38,-138l0 -61c0,-68 -13,-115 -39,-140 -26,-25 -74,-38 -145,-38l-238 0 0 414zm420 731l0 -194c0,-68 -13,-115 -39,-140 -26,-25 -74,-38 -145,-38l-236 0 0 372m4240 0l294 0 0 -1077 -294 1077zm-775 0l297 0 -297 -1090 0 1090zm-54288 0l33679 0c-18,-12 -35,-23 -52,-36 -140,-105 -209,-254 -209,-445l0 -129 594 0 0 42c0,78 19,131 56,159 36,28 114,42 230,42l88 0c120,0 197,-16 233,-47 36,-31 54,-97 54,-199l0 -238c0,-104 -17,-171 -49,-201 -33,-30 -112,-45 -238,-45l-88 0c-105,0 -175,10 -212,28 -36,18 -56,50 -60,96l-569 0 0 -1323 1712 0 0 473 -1140 0 0 420c44,-56 99,-97 166,-125 67,-28 145,-42 234,-42l138 0c251,0 432,54 545,161 112,106 169,279 169,517l0 341c0,249 -62,423 -186,523 -12,10 -25,19 -38,28l1112 0c-55,-37 -104,-81 -147,-133 -138,-171 -208,-423 -208,-756l0 -363c0,-372 74,-644 220,-816 146,-171 377,-257 694,-257l347 0c257,0 467,64 632,191 164,128 246,289 246,483l0 101 -640 0c-2,-75 -29,-129 -83,-163 -53,-34 -138,-51 -257,-51l-160 0c-147,0 -244,27 -291,80 -47,54 -70,183 -70,388l0 393c0,202 23,330 70,383 47,54 144,80 291,80l178 0c126,0 214,-17 263,-53 50,-35 75,-95 75,-182l0 -93 -366 0 0 -447 990 0 0 409c0,322 -70,558 -212,706 -37,38 -79,71 -126,100l1548 0 0 -1500 432 0 0 1500 439 0 0 -1500 635 0 495 1183 0 -1183 407 0 0 1500 428 0 0 -1500 810 0c226,0 383,47 474,142 90,93 136,258 136,494l0 321c0,236 -46,401 -136,494 -17,18 -37,34 -58,49l584 0 0 -1500 432 0 0 1500 345 0 431 -1500 656 0 438 1500 1082 0 0 -1500 1071 0 0 355 -644 0 0 309 606 0 0 350 -606 0 0 486 1138 0c-12,-10 -24,-21 -34,-31 -90,-96 -136,-265 -136,-507l0 -331c0,-242 46,-411 136,-507 91,-96 248,-143 473,-143l210 0c226,0 384,48 475,144 91,97 136,265 136,506l0 331c0,241 -45,409 -136,506 -10,11 -22,22 -34,32l548 0 0 -1500 642 0c245,0 413,32 504,97 91,65 137,178 137,340l0 128c0,107 -26,192 -78,253 -52,61 -129,98 -231,110 108,18 186,54 235,107 50,54 74,130 74,229l0 236 536 0c-17,-15 -34,-31 -49,-49 -43,-50 -73,-109 -91,-177 -18,-68 -28,-172 -28,-312l0 -962 425 0 0 929c0,129 16,212 49,251 32,38 99,58 199,58l78 0c100,0 166,-19 198,-57 32,-38 48,-122 48,-252l0 -929 425 0 0 962c0,143 -9,247 -26,315 -18,66 -48,125 -90,174 -15,18 -32,34 -49,49l568 0 0 -1500 624 0 326 1152 327 -1152 624 0 0 1500 27416 0"/>
 </g>
</svg>
