<?xml version="1.0" encoding="UTF-8"?> <svg xmlns="http://www.w3.org/2000/svg" width="385" height="222" viewBox="0 0 385 222"><g fill="none" fill-rule="evenodd"><path d="M0 0h385v222H0z"></path><path fill="#312783" d="M318.678 119.524c.942 2.464-.27 5.195-2.716 6.217l-.206.081-28.019 10.27c-2.58.94-5.454-.34-6.419-2.868-.939-2.46.277-5.195 2.717-6.21l.206-.081 28.025-10.272c2.577-.948 5.45.345 6.412 2.863zm-105.89-19.045c7.084 0 13.406 5.679 13.406 13.765 0 8.647-5.506 14.751-13.405 14.751-7.9 0-13.51-6.104-13.51-14.75 0-8.087 6.427-13.766 13.51-13.766zm-68.436.46c2.244 0 6.36.396 8.152 1.392l.204.122v5.295c-2.19-.978-4.559-1.421-7.039-1.421-5.385 0-8.415 4.136-8.415 8.512 0 4.143 3.262 8.421 8.415 8.421 2.325 0 4.863-.313 6.975-1.156l.416-.175v5.547c-1.66 1.09-5.52 1.342-8.09 1.342-4.17 0-8.476-1.601-10.987-4.07-2.67-2.626-4.113-6.005-4.113-9.66 0-3.646 1.18-7.198 3.85-9.826 2.742-2.695 6.706-4.324 10.632-4.324zm29.03.764l.303.149v5.119c-1.308-.798-4.2-.851-6.023-.854h-.424c-1.823.005-4.5.134-4.5 2.258 0 2.04 2.642 2.59 4.182 3.051l.145.044 1.868.54c3.458.968 6.606 3.538 6.606 7.547 0 2.683-.855 5.015-3.1 6.844-2.202 1.788-4.807 2.29-7.646 2.29-3.397 0-6.127-.268-8.512-1.384l-.339-.166v-5.627c2.642 1.083 6.257 1.736 8.76 1.736 1.723 0 3.56-.82 3.56-2.718 0-1.968-2.791-2.909-4.369-3.341-4.364-1.186-8.169-2.605-8.169-7.547 0-6.16 4.531-8.889 10.179-8.889 2.71 0 5.422.004 7.478.948zm22.213 0l.304.149v5.119c-1.317-.798-4.204-.851-6.03-.854h-.423c-1.824.005-4.497.134-4.497 2.258 0 2.04 2.639 2.59 4.178 3.051l.145.044 1.871.54c3.452.968 6.606 3.538 6.606 7.547 0 2.683-.85 5.015-3.102 6.844-2.207 1.788-4.804 2.29-7.65 2.29-3.394 0-6.12-.268-8.506-1.384l-.338-.166v-5.627c2.639 1.083 6.253 1.736 8.76 1.736 1.72 0 3.556-.82 3.556-2.718 0-1.968-2.795-2.909-4.368-3.341-4.361-1.186-8.166-2.605-8.166-7.547 0-6.16 4.527-8.889 10.179-8.889 2.707 0 5.418.004 7.48.948zm-91.015-.074c6.333 0 9.518 1.546 9.515 7.15 0 3.565-3.59 5.861-4.808 6.086.73.671 1.45 1.17 2.069 2.65.056.126 3.653 9.56 3.93 10.286l.016.044h-7.616s-1.698-5.841-2.594-7.972c-.735-1.32-1.52-2.031-2.475-2.106l-.17-.007h-2.605v10.085h-7.118V101.63h11.856zm21.424-.002v26.216h-7.122v-26.216h7.122zm-38.747 0v5.77H74.121v4.381h12.697v5.776H74.12v4.517h13.136v5.773H67v-26.217h20.257zm150.67.003l9.432 16.532h.07V101.63h6.702v26.213h-8.546l-9.435-16.47h-.062v16.47h-6.706V101.63h8.546zm-25.159 4.663c-4.22 0-5.914 3.8-5.914 7.958 0 5.202 1.695 9 5.914 9 4.216 0 5.91-3.798 5.91-9 0-4.157-1.694-7.958-5.91-7.958zm105.91-1.935c.942 2.456-.27 5.188-2.716 6.203l-.206.08-28.019 10.273c-2.58.948-5.454-.342-6.419-2.864-.939-2.463.277-5.195 2.717-6.214l.206-.08 28.025-10.269c2.577-.944 5.45.339 6.412 2.87zm-215.682 2.483h-3.282v5.8h3.282c1.802 0 3.56-.37 3.56-2.898 0-2.532-1.758-2.902-3.56-2.902zM318.681 89.18c.942 2.46-.27 5.195-2.716 6.211l-.207.08-28.022 10.266c-2.58.948-5.454-.332-6.415-2.864-.94-2.463.273-5.195 2.716-6.21l.206-.081 28.022-10.272c2.577-.94 5.45.339 6.416 2.87z"></path></g></svg> 