<?xml version="1.0" encoding="UTF-8"?> <svg xmlns="http://www.w3.org/2000/svg" width="385" height="222" viewBox="0 0 385 222" fill="none"><g clip-path="url(#clip0)"><path d="M171.771 148.323V158.776C171.771 161.746 170.298 163.33 167.621 163.33C164.928 163.33 163.446 161.7 163.446 158.65V148.334H159.742V158.776C159.742 163.914 162.596 166.859 167.572 166.859C172.595 166.859 175.476 163.858 175.476 158.626V148.323H171.771ZM185.4 148.323L177.355 166.574H181.136L182.689 163.039L182.8 162.774H191.157L192.796 166.574H196.68L188.71 148.431L188.638 148.323L185.4 148.323ZM207.424 148.323L203.278 160.881L199.243 148.332H195.301L201.664 166.586H204.731L208.885 154.594L213.036 166.586H216.13L222.477 148.332H218.636L214.592 160.881L210.446 148.323H207.424ZM243.673 148.323V166.559H247.328V148.323H243.673ZM138.829 148.324V166.585H142.534V159.168H150.9V166.585H154.606V148.324H150.9V155.69H142.534V148.324H138.829ZM225.465 148.336V166.572H239.255V163.247H229.12V158.725H235.859V155.399H229.12V151.661H238.902V148.336H225.465ZM186.969 152.944L189.611 159.058H189.601L189.781 159.48H184.177L184.355 159.058H184.352L186.969 152.944Z" fill="#232527"></path><path d="M184.968 54.9995C183.498 55.1295 179.527 56.0335 179.527 56.0335H179.525C170.574 58.3472 168.458 66.4705 168.458 66.4705C168.021 67.8364 167.822 69.2363 167.764 70.5552V72.3503C167.883 75.1237 168.5 77.1946 168.5 77.1946C171.49 90.4532 186.192 112.239 189.351 116.816C189.575 117.038 189.755 116.958 189.755 116.958C190.096 116.863 190.069 116.536 190.069 116.536L190.076 116.538C194.942 67.8935 184.968 54.9996 184.968 54.9996L184.968 54.9995ZM201.049 54.9995C201.049 54.9995 191.031 67.9004 195.901 116.573H195.908C195.945 116.882 196.165 116.946 196.165 116.946C196.491 117.073 196.658 116.76 196.658 116.76L196.659 116.763C199.9 112.069 214.518 90.4021 217.495 77.1944C217.495 77.1944 219.109 70.8018 217.551 66.4702C217.551 66.4702 215.338 58.2211 206.375 56.0412C206.375 56.0412 203.792 55.3855 201.049 54.9993L201.049 54.9995ZM154.841 69.6026C154.841 69.6026 146.312 77.6979 145.888 86.2801H145.891V87.5805C145.898 87.6784 145.903 87.7775 145.909 87.8773C146.276 94.7977 151.483 98.8935 151.483 98.8935C159.871 107.069 180.182 117.39 184.901 119.732C184.967 119.757 185.211 119.837 185.354 119.656C185.354 119.656 185.429 119.599 185.463 119.498V119.282C185.46 119.27 185.453 119.257 185.447 119.244H185.449C172.523 91.0082 154.841 69.6024 154.841 69.6024L154.841 69.6026ZM231.155 69.6026C231.155 69.6026 213.526 90.9413 200.607 119.12L200.612 119.118C200.612 119.118 200.459 119.445 200.706 119.656C200.706 119.656 200.779 119.711 200.881 119.734H201.06C201.092 119.725 201.127 119.712 201.161 119.689V119.692C206.008 117.286 226.162 107.032 234.511 98.8948C234.511 98.8948 239.798 94.6492 240.075 87.8324C240.685 78.3646 231.155 69.6023 231.155 69.6023L231.155 69.6026ZM247.022 97.6346C247.022 97.6346 218.282 113.058 203.421 123.082L203.423 123.083L203.426 123.086C203.426 123.086 203.157 123.263 203.251 123.579C203.251 123.579 203.392 123.835 203.597 123.835V123.836C208.92 123.846 229.061 123.868 229.566 123.774C229.566 123.774 232.17 123.67 235.388 122.434C235.388 122.434 242.553 120.156 246.274 112.022C246.274 112.022 247.974 108.621 247.999 103.843V103.64C247.986 101.798 247.727 99.758 247.022 97.6346H247.022ZM138.966 97.7065C136.351 105.802 139.872 112.325 139.877 112.335C143.546 120.087 150.549 122.435 150.549 122.435C153.782 123.764 157.016 123.856 157.016 123.856C157.521 123.948 177.125 123.865 182.378 123.84C182.601 123.838 182.723 123.615 182.723 123.615C182.738 123.59 182.752 123.566 182.758 123.543V123.341C182.715 123.205 182.599 123.109 182.599 123.109L182.602 123.108C167.749 113.087 138.966 97.7069 138.966 97.7069L138.966 97.7065ZM181.778 126.329L147.969 127.514C151.635 134.05 157.81 139.13 164.243 137.57C168.682 136.46 178.738 129.446 182.058 127.076L182.047 127.066C182.305 126.834 182.212 126.648 182.212 126.648C182.128 126.345 181.778 126.345 181.778 126.345L181.778 126.329ZM204.171 126.353L204.168 126.366C204.168 126.366 203.871 126.403 203.788 126.626C203.788 126.626 203.716 126.93 203.916 127.081L203.912 127.084C207.149 129.405 216.962 136.265 221.689 137.597C221.689 137.597 222.405 137.841 223.606 137.884H224.327C227.494 137.773 233.012 136.146 238.025 127.532L204.171 126.353Z" fill="#CF0A2C"></path></g><defs><clipPath id="clip0"><rect width="110" height="111.859" fill="white" transform="translate(138 55)"></rect></clipPath></defs></svg> 