<?xml version="1.0" encoding="UTF-8"?> <svg xmlns="http://www.w3.org/2000/svg" width="385" height="222" viewBox="0 0 385 222" fill="none"><path d="M123.853 81.1955H111.985V93.0637H123.853V81.1955Z" fill="#00C7FD"></path><path d="M123.558 143.029V100.244H112.281V142.986H123.558V143.029ZM198.23 143.451V132.976C196.583 132.976 195.189 132.892 194.176 132.723C192.993 132.554 192.106 132.132 191.515 131.54C190.924 130.949 190.544 130.104 190.332 128.964C190.163 127.908 190.079 126.514 190.079 124.825V109.916H198.23V100.244H190.079V83.6029H178.802V124.952C178.802 128.457 179.098 131.414 179.689 133.779C180.28 136.102 181.294 138.002 182.688 139.438C184.081 140.874 185.94 141.888 188.178 142.522C190.459 143.155 193.331 143.451 196.752 143.451H198.23V143.451ZM262.767 143.029V80.3085H251.49V143.029H262.767ZM167.947 104.467C164.822 101.088 160.429 99.399 154.854 99.399C152.151 99.399 149.659 99.9481 147.463 101.046C145.225 102.144 143.366 103.665 141.846 105.608L141.254 106.41V105.692V100.244H130.146V142.986H141.339V120.221V121.784C141.339 121.531 141.339 121.277 141.339 121.024C141.466 117.011 142.437 114.055 144.295 112.154C146.281 110.127 148.688 109.113 151.433 109.113C154.685 109.113 157.177 110.127 158.825 112.07C160.429 114.013 161.274 116.758 161.274 120.263V120.39V142.986H172.636V118.743C172.678 112.661 171.073 107.846 167.947 104.467ZM245.661 121.573C245.661 118.49 245.112 115.618 244.056 112.914C242.958 110.254 241.438 107.888 239.537 105.861C237.594 103.834 235.271 102.271 232.568 101.131C229.865 99.9903 226.866 99.4413 223.614 99.4413C220.531 99.4413 217.617 100.033 214.914 101.173C212.21 102.356 209.845 103.918 207.86 105.903C205.875 107.888 204.27 110.254 203.13 112.957C201.947 115.66 201.398 118.574 201.398 121.657C201.398 124.74 201.947 127.655 203.045 130.358C204.143 133.061 205.706 135.426 207.649 137.411C209.592 139.396 211.999 141.001 214.787 142.142C217.574 143.324 220.658 143.915 223.952 143.915C233.497 143.915 239.41 139.565 242.958 135.511L234.849 129.344C233.159 131.371 229.105 134.117 224.036 134.117C220.869 134.117 218.25 133.399 216.265 131.921C214.28 130.484 212.928 128.457 212.21 125.965L212.084 125.585H245.661V121.573V121.573ZM212.168 117.645C212.168 114.519 215.758 109.071 223.487 109.029C231.217 109.029 234.849 114.477 234.849 117.603L212.168 117.645ZM275.606 137.622C275.395 137.116 275.099 136.693 274.719 136.313C274.339 135.933 273.917 135.637 273.41 135.426C272.903 135.215 272.354 135.088 271.805 135.088C271.214 135.088 270.707 135.215 270.2 135.426C269.693 135.637 269.271 135.933 268.891 136.313C268.511 136.693 268.215 137.116 268.004 137.622C267.793 138.129 267.666 138.678 267.666 139.227C267.666 139.819 267.793 140.325 268.004 140.832C268.215 141.339 268.511 141.761 268.891 142.142C269.271 142.522 269.693 142.817 270.2 143.029C270.707 143.24 271.256 143.366 271.805 143.366C272.396 143.366 272.903 143.24 273.41 143.029C273.917 142.817 274.339 142.522 274.719 142.142C275.099 141.761 275.395 141.339 275.606 140.832C275.817 140.325 275.944 139.776 275.944 139.227C275.944 138.678 275.817 138.129 275.606 137.622ZM274.93 140.579C274.762 141.001 274.508 141.381 274.212 141.677C273.917 141.973 273.537 142.226 273.114 142.395C272.692 142.564 272.27 142.648 271.763 142.648C271.298 142.648 270.834 142.564 270.411 142.395C269.989 142.226 269.609 141.973 269.313 141.677C269.017 141.381 268.764 141.001 268.595 140.579C268.426 140.156 268.342 139.734 268.342 139.227C268.342 138.763 268.426 138.298 268.595 137.876C268.764 137.453 269.017 137.073 269.313 136.778C269.609 136.482 269.989 136.229 270.411 136.06C270.834 135.891 271.256 135.806 271.763 135.806C272.227 135.806 272.692 135.891 273.114 136.06C273.537 136.229 273.917 136.482 274.212 136.778C274.508 137.073 274.762 137.453 274.93 137.876C275.099 138.298 275.184 138.72 275.184 139.227C275.184 139.734 275.099 140.156 274.93 140.579ZM272.565 139.607C272.903 139.565 273.157 139.438 273.368 139.227C273.579 139.016 273.706 138.72 273.706 138.298C273.706 137.834 273.579 137.496 273.283 137.242C273.03 136.989 272.565 136.862 272.016 136.862H270.158V141.635H271.045V139.692H271.678L272.861 141.635H273.79L272.565 139.607ZM272.101 138.889C271.974 138.889 271.847 138.889 271.678 138.889H271.045V137.538H271.678C271.805 137.538 271.932 137.538 272.101 137.538C272.227 137.538 272.354 137.58 272.481 137.622C272.608 137.665 272.692 137.749 272.734 137.834C272.819 137.918 272.819 138.045 272.819 138.214C272.819 138.383 272.776 138.509 272.734 138.594C272.65 138.678 272.565 138.763 272.481 138.805C272.354 138.847 272.227 138.889 272.101 138.889Z" fill="#0168B5"></path></svg> 