<?xml version="1.0" encoding="UTF-8"?> <svg xmlns="http://www.w3.org/2000/svg" width="385" height="222" viewBox="0 0 385 222"><g fill="none" fill-rule="evenodd"><path d="M0 0h385v222H0z"></path><path fill="#233E99" d="M170.08 91c6.205 0 9.423.703 11.636 3.041 1.44 1.568 2.313 3.204 2.313 7.948v13.158c0 4.74-.873 6.374-2.313 7.946-2.213 2.337-5.431 3.039-11.636 3.039H152.28c-6.205 0-9.422-.702-11.634-3.039-1.44-1.572-2.313-3.206-2.313-7.946V101.99c0-4.744.873-6.38 2.313-7.948 2.212-2.338 5.43-3.041 11.634-3.041h17.799zm112.14.568l19.312 34.129h-12.641l-3.216-5.943h-21.088l-3.187 5.943h-12.033l19.31-34.13h13.543zm-179.187 0l20.685 25.48v-25.48h10.426v34.129h-17.667L95.422 99.783v25.914H85v-34.13h18.033zm96.148 0v34.129h-10.897v-34.13h10.897zm32.788 0l-19.414 15.964 21.892 18.165h-15.386l-19.88-17.798 18.404-16.331h14.384zm15.387 0v34.129H236.46v-34.13h10.896zm-77.432 8.082h-17.21c-2.378 0-3.216.133-3.787.634-.535.468-.771 1.068-.771 3.072v10.421c0 2.003.236 2.602.77 3.07.549.48 1.343.624 3.51.635h17.21c2.381 0 3.221-.134 3.786-.634.54-.469.773-1.068.773-3.07v-10.422c0-2.004-.233-2.604-.773-3.072-.542-.481-1.338-.624-3.508-.634zm105.222.336l-6.773 12.353h13.547l-6.774-12.353z"></path></g></svg> 