<?xml version="1.0" encoding="UTF-8"?> <svg xmlns="http://www.w3.org/2000/svg" width="385" height="222" viewBox="0 0 385 222"><g fill="none" fill-rule="evenodd"><path d="M0 0h385v222H0z"></path><path fill="#3253DC" fill-rule="nonzero" d="M138.932 99.556c.64 0 1.16.53 1.16 1.186v22.65a1.188 1.188 0 0 1-1.16 1.154h-3.005a1.129 1.129 0 0 1-1.13-1.094v-2.098c-1.518 2.28-4.137 3.861-7.946 3.861-6.367 0-10.295-4.317-10.295-10.732v-13.802a1.188 1.188 0 0 1 1.16-1.155h3.006c.624 0 1.13.517 1.13 1.155v12.92c0 4.166 2.143 6.932 6.368 6.932 4.136 0 6.576-2.857 6.576-6.87V100.68c.02-.63.515-1.134 1.13-1.155h3.006v.03zM94.597 87C84.302 87 76 95.178 76 106.092c0 10.945 8.302 19.093 18.597 19.093 1.71.002 3.411-.233 5.058-.7l2.024 5.32c.185.603.753.994 1.368.943h3.214c.774 0 1.339-.516.982-1.52l-2.619-6.962c5.148-3.314 8.57-9.181 8.57-16.204 0-10.884-8.302-19.062-18.597-19.062zm8.093 30.19l-2.35-6.233a1.499 1.499 0 0 0-1.518-1.004h-3.065c-.773 0-1.368.517-1.011 1.52l3.094 8.179a12.49 12.49 0 0 1-3.243.395c-7.528 0-12.884-6.05-12.884-13.955 0-7.904 5.356-13.954 12.884-13.954 7.528 0 12.884 6.05 12.884 13.954 0 4.622-1.815 8.574-4.79 11.097zm206.382 6.08a.855.855 0 0 1-.03.873.815.815 0 0 1-.774.373h-3.362c-.606.04-1.16-.35-1.339-.942l-6.219-17.086-6.308 17.086c-.183.59-.734.977-1.339.942h-3.005a1.328 1.328 0 0 1-1.34-.942l-6.367-17.178-6.278 17.178a1.364 1.364 0 0 1-1.339.942h-3.154a1.364 1.364 0 0 1-1.339-.942l-6.219-17.178-6.427 17.178c-.183.59-.734.977-1.339.942h-3.005a1.328 1.328 0 0 1-1.34-.942l-6.278-17.178-6.278 17.178c-.18.592-.733.981-1.339.942h-3.273a.812.812 0 0 1-.777-.37.852.852 0 0 1-.026-.876l8.51-22.741c.267-.669.714-1.003 1.339-1.003h3.66c.624 0 1.07.304 1.339 1.003l6.13 16.6 6.07-16.6c.267-.669.713-1.003 1.338-1.003h3.6c.625 0 1.072.304 1.34 1.003l6.01 16.6 6.01-16.6c.268-.669.715-1.003 1.34-1.003h3.63c.624 0 1.07.304 1.339 1.003l6.1 16.6 5.95-16.6c.268-.669.715-1.003 1.34-1.003h3.66c.624 0 1.07.304 1.338 1.003l8.45 22.74zm-141.01-23.714h-3.005c-.64 0-1.16.53-1.16 1.186v2.067c-1.518-2.34-4.493-4.013-8.005-4.013-6.635 0-12.318 5.35-12.318 13.164 0 7.905 5.713 13.225 12.289 13.225 3.57 0 6.457-1.672 8.063-4.013v2.189c.024.64.535 1.147 1.16 1.155h3.006c.3 0 .588-.122.8-.338.212-.217.33-.51.33-.817v-22.62a1.194 1.194 0 0 0-1.16-1.185zm-11.604 20.643c-4.374 0-7.498-3.648-7.498-8.178 0-4.59 3.094-8.118 7.498-8.118 4.344 0 7.498 3.527 7.498 8.118-.03 4.56-3.184 8.178-7.498 8.178zm47.46.79c.654.821.088 1.46-.269 1.733-2.082 1.612-4.85 2.493-7.855 2.493-7.588 0-12.646-5.685-12.646-13.164s5.058-13.225 12.646-13.225c3.005 0 5.743.882 7.855 2.493.357.274.863.821.268 1.733l-1.428 2.037c-.565.79-1.22.578-1.785.213-1.34-.82-2.916-1.52-4.731-1.52-4.434 0-7.38 3.648-7.38 8.27 0 4.62 2.946 8.238 7.38 8.238 1.844 0 3.302-.73 4.641-1.52.566-.304 1.16-.578 1.786.274l1.517 1.945zm14.163-22.132c-7.142 0-12.825 5.715-12.825 13.164 0 7.51 5.713 13.164 12.825 13.164 7.14 0 12.824-5.685 12.824-13.164a13.133 13.133 0 0 0-3.7-9.34 12.571 12.571 0 0 0-9.124-3.824zm0 21.312c-4.374 0-7.499-3.588-7.499-8.118 0-4.59 3.095-8.117 7.499-8.117 4.374 0 7.498 3.527 7.498 8.117 0 4.53-3.095 8.118-7.498 8.118zm-39.485-32.5c.63.014 1.133.541 1.13 1.186v34.475c.012.313-.103.617-.316.84a1.107 1.107 0 0 1-.814.346h-3.006a1.216 1.216 0 0 1-1.16-1.186V88.885a1.216 1.216 0 0 1 1.16-1.186h3.006v-.03z"></path></g></svg> 