<?xml version="1.0" encoding="UTF-8"?> <svg xmlns="http://www.w3.org/2000/svg" width="385" height="222" viewBox="0 0 385 222"><g fill="none" fill-rule="evenodd"><path d="M0 0h385v222H0z"></path><path fill="#0085CC" d="M226.078 76.765h29.074c2.44.03 4.405 2.05 4.405 4.516 0 2.42-1.851 4.374-4.191 4.513l-.214.008h-19.067c-2.37 0-4.304 1.876-4.447 4.23l-.008.215v10.204c0 2.404 1.863 4.377 4.206 4.505l.208.006h15.764c2.48 0 4.458 2.037 4.458 4.527 0 2.419-1.867 4.403-4.246 4.514l-.212.005h-15.712c-2.392 0-4.351 1.907-4.461 4.307l-.005.214v10.24c.026 2.412 1.901 4.367 4.257 4.477l.209.005 19.004-.012c2.454 0 4.45 2.04 4.45 4.526 0 2.408-1.855 4.369-4.185 4.523l-.213.009h-29.135c-2.355-.036-4.28-1.934-4.39-4.299l-.006-.216v-56.5c0-2.427 1.867-4.401 4.245-4.512l.212-.005h29.074zm-58.938 0c2.462 0 4.44 2.02 4.44 4.517 0 .869-.223 1.682-.64 2.366l-28.237 44.981c-.23.38-.359.926-.359 1.461 0 1.74 1.402 3.15 3.126 3.15h21.67c2.426.04 4.387 2.05 4.387 4.529 0 2.474-1.96 4.468-4.387 4.51h-36.77c-2.426-.042-4.37-2.044-4.37-4.51 0-.92.32-1.775.595-2.232l.268-.446 27.87-44.394c.317-.504.51-1.105.51-1.743 0-1.733-1.386-3.152-3.08-3.152h-19.55c-2.449-.03-4.43-2.028-4.43-4.52 0-2.485 1.981-4.495 4.43-4.517zm12.248 0h34.45c2.46 0 4.456 2.019 4.456 4.517 0 2.425-1.884 4.404-4.246 4.515l-.21.005h-7.761c-2.379 0-4.325 1.903-4.434 4.303l-.005.213v46.864c0 2.813-2.248 5.078-5.009 5.078-2.693 0-4.877-2.147-4.99-4.857l-.005-.22V90.317c0-2.428-1.896-4.4-4.251-4.511l-.21-.005h-7.785c-2.462 0-4.438-2.023-4.438-4.516 0-2.43 1.865-4.405 4.228-4.516l.21-.005h34.45z"></path></g></svg> 